<svg width="24" height="24" viewBox="0 0 24 24" fill="none" xmlns="http://www.w3.org/2000/svg">
<path d="M12.0381 5.31125C11.6357 5.31017 11.237 5.3889 10.8652 5.54286C10.4935 5.69683 10.1559 5.92299 9.87206 6.20825C8.67806 7.40225 8.67806 9.34492 9.87206 10.5389C10.156 10.8242 10.4937 11.0503 10.8656 11.2043C11.2375 11.3582 11.6362 11.437 12.0387 11.4359C12.441 11.437 12.8396 11.3583 13.2112 11.2043C13.5829 11.0503 13.9204 10.8242 14.2041 10.5389C15.3981 9.34492 15.3981 7.40225 14.2041 6.20825C13.9203 5.92293 13.5827 5.69673 13.2109 5.54276C12.8391 5.38879 12.4405 5.3101 12.0381 5.31125ZM13.2614 9.59625C13.1012 9.75736 12.9107 9.8851 12.7008 9.97207C12.4909 10.059 12.2659 10.1035 12.0387 10.1029C11.8114 10.1034 11.5863 10.0589 11.3762 9.97193C11.1662 9.88497 10.9755 9.75729 10.8151 9.59625C10.4913 9.27169 10.3095 8.83199 10.3095 8.37358C10.3095 7.91517 10.4913 7.47548 10.8151 7.15092C10.9753 6.98978 11.1659 6.86203 11.3758 6.77506C11.5857 6.68809 11.8108 6.64363 12.0381 6.64425C12.5004 6.64425 12.9347 6.82392 13.2614 7.15092C13.585 7.47556 13.7666 7.91523 13.7666 8.37358C13.7666 8.83194 13.585 9.2716 13.2614 9.59625ZM16.7721 7.27425C16.7487 7.17392 16.7331 7.10092 16.7207 7.04492C16.6954 6.92658 16.6797 6.85492 16.6381 6.75792C16.6028 6.67701 16.5369 6.61331 16.4549 6.58067C16.3729 6.54802 16.2813 6.54907 16.2001 6.58358C16.0321 6.65625 15.9534 6.85225 16.0261 7.02158C16.0417 7.05725 16.0477 7.08258 16.0697 7.18492C16.0821 7.24458 16.0991 7.32192 16.1237 7.42792C16.1443 7.51379 16.198 7.58803 16.2732 7.63443C16.3483 7.68083 16.4387 7.69562 16.5247 7.67558C16.7037 7.63292 16.8144 7.45325 16.7721 7.27425ZM16.1261 5.73892C15.7349 5.12072 15.2133 4.59556 14.5977 4.20026C13.9822 3.80497 13.2876 3.54909 12.5627 3.45058C12.5193 3.44465 12.4752 3.44732 12.4329 3.45844C12.3905 3.46956 12.3508 3.48892 12.3159 3.5154C12.281 3.54188 12.2517 3.57497 12.2297 3.61278C12.2076 3.65058 12.1932 3.69237 12.1872 3.73575C12.1813 3.77913 12.184 3.82325 12.1951 3.8656C12.2062 3.90795 12.2256 3.94769 12.252 3.98256C12.2785 4.01743 12.3116 4.04674 12.3494 4.06882C12.3872 4.0909 12.429 4.10532 12.4724 4.11125C13.1012 4.19654 13.7036 4.41844 14.2375 4.76136C14.7714 5.10428 15.2237 5.55991 15.5627 6.09625C15.6101 6.17095 15.6852 6.22377 15.7716 6.24309C15.8579 6.2624 15.9484 6.24664 16.0231 6.19925C16.0978 6.15186 16.1506 6.07674 16.1699 5.99042C16.1892 5.90409 16.1734 5.81362 16.1261 5.73892Z" fill="#248FEC"/>
<path d="M12.0017 1.0874C8.05475 1.0874 4.84375 4.2984 4.84375 8.24507C4.84375 10.8204 8.55642 18.9974 9.55375 20.9631C10.4144 22.6597 11.4771 22.9131 12.0344 22.9131C12.9998 22.9131 13.8787 22.2197 14.5104 20.9604C15.4564 19.0741 19.1594 10.7921 19.1594 8.2454C19.1597 4.2984 15.9484 1.0874 12.0017 1.0874ZM13.3184 20.3627C12.9368 21.1244 12.4564 21.5794 12.0344 21.5794C11.6064 21.5794 11.1361 21.1347 10.7427 20.3594C9.41775 17.7481 6.17708 10.2687 6.17708 8.2454C6.17708 5.03374 8.79008 2.42107 12.0017 2.42107C15.2137 2.42107 17.8264 5.03374 17.8264 8.2454C17.8264 10.2994 14.4774 18.0527 13.3184 20.3627Z" fill="#248FEC"/>
</svg>
