<svg width="24" height="24" viewBox="0 0 24 24" fill="none" xmlns="http://www.w3.org/2000/svg">
<g clip-path="url(#clip0_1195_95818)">
<path d="M17.5859 15.6975C17.3769 15.4878 17.1285 15.3213 16.855 15.2078C16.5815 15.0942 16.2883 15.0357 15.9922 15.0357C15.696 15.0357 15.4028 15.0942 15.1293 15.2078C14.8558 15.3213 14.6074 15.4878 14.3984 15.6975L13.3109 16.785C12.0865 16.0079 10.952 15.0973 9.92841 14.07C8.90326 13.0445 7.99289 11.9103 7.21341 10.6875L8.30091 9.60002C8.51067 9.39099 8.67711 9.14261 8.79067 8.86911C8.90423 8.59562 8.96269 8.3024 8.96269 8.00627C8.96269 7.71014 8.90423 7.41692 8.79067 7.14343C8.67711 6.86994 8.51067 6.62156 8.30091 6.41252L6.17841 4.29752C5.97233 4.08707 5.72605 3.92019 5.45419 3.80681C5.18233 3.69343 4.89046 3.63586 4.59591 3.63752C4.29927 3.6368 4.00542 3.69473 3.73126 3.808C3.4571 3.92127 3.20804 4.08764 2.99841 4.29752L1.97841 5.31002C1.49224 5.83275 1.12939 6.45778 0.916537 7.13918C0.703682 7.82057 0.646233 8.54101 0.748413 9.24752C0.988413 12.06 2.83341 15.4425 5.67591 18.2925C8.51841 21.1425 11.9384 22.98 14.7509 23.25C14.9608 23.2612 15.1711 23.2612 15.3809 23.25C15.9863 23.2754 16.5907 23.1797 17.1587 22.9685C17.7266 22.7573 18.2467 22.4348 18.6884 22.02L19.7009 21C19.9108 20.7904 20.0772 20.5413 20.1904 20.2672C20.3037 19.993 20.3616 19.6992 20.3609 19.4025C20.3626 19.108 20.305 18.8161 20.1916 18.5442C20.0782 18.2724 19.9114 18.0261 19.7009 17.82L17.5859 15.6975ZM18.6434 19.9425L17.6234 20.955C17.2463 21.2693 16.806 21.499 16.3324 21.6284C15.8588 21.7577 15.363 21.7839 14.8784 21.705C12.4409 21.495 9.33591 19.77 6.77091 17.205C4.20591 14.64 2.48091 11.5575 2.24841 9.12002C2.16753 8.63546 2.1927 8.13912 2.32218 7.66522C2.45166 7.19132 2.68237 6.75114 2.99841 6.37502L4.05591 5.35502C4.12599 5.28551 4.20911 5.23052 4.30048 5.19319C4.39186 5.15587 4.48971 5.13695 4.58841 5.13752C4.68712 5.13695 4.78497 5.15587 4.87634 5.19319C4.96772 5.23052 5.05083 5.28551 5.12091 5.35502L7.24341 7.50002C7.3831 7.64054 7.46151 7.83063 7.46151 8.02877C7.46151 8.22691 7.3831 8.417 7.24341 8.55752L5.74341 10.0575C5.62604 10.1743 5.55061 10.3267 5.5289 10.4908C5.5072 10.655 5.54043 10.8217 5.62341 10.965C6.52146 12.4939 7.61296 13.9005 8.87091 15.15C10.1205 16.408 11.5271 17.4995 13.0559 18.3975C13.1992 18.4805 13.3659 18.5137 13.5301 18.492C13.6943 18.4703 13.8466 18.3949 13.9634 18.2775L15.4634 16.7775C15.6039 16.6378 15.794 16.5594 15.9922 16.5594C16.1903 16.5594 16.3804 16.6378 16.5209 16.7775L18.6434 18.9C18.7129 18.9701 18.7679 19.0532 18.8052 19.1446C18.8426 19.236 18.8615 19.3338 18.8609 19.4325C18.8562 19.6241 18.7784 19.8065 18.6434 19.9425ZM19.9484 4.04252C18.9061 2.99625 17.667 2.16665 16.3025 1.60156C14.9381 1.03647 13.4753 0.747059 11.9984 0.750023C11.7995 0.750023 11.6087 0.82904 11.4681 0.969692C11.3274 1.11034 11.2484 1.30111 11.2484 1.50002C11.2484 1.69893 11.3274 1.8897 11.4681 2.03035C11.6087 2.171 11.7995 2.25002 11.9984 2.25002C13.2858 2.24998 14.5604 2.50488 15.7487 3.00001C16.9371 3.49514 18.0156 4.22071 18.922 5.13484C19.8285 6.04897 20.5449 7.13356 21.0301 8.32602C21.5152 9.51848 21.7593 10.7952 21.7484 12.0825C21.7484 12.2814 21.8274 12.4722 21.9681 12.6129C22.1087 12.7535 22.2995 12.8325 22.4984 12.8325C22.6973 12.8325 22.8881 12.7535 23.0287 12.6129C23.1694 12.4722 23.2484 12.2814 23.2484 12.0825C23.2628 10.59 22.9782 9.10965 22.4114 7.72882C21.8447 6.34799 21.0072 5.09459 19.9484 4.04252Z" fill="#248FEC"/>
<path d="M15.6842 8.33249C16.1099 8.75555 16.4466 9.25948 16.6746 9.81462C16.9025 10.3698 17.0172 10.9649 17.0117 11.565C17.0117 11.7639 17.0907 11.9547 17.2314 12.0953C17.372 12.236 17.5628 12.315 17.7617 12.315C17.9606 12.315 18.1514 12.236 18.292 12.0953C18.4327 11.9547 18.5117 11.7639 18.5117 11.565C18.5216 10.7708 18.3738 9.98248 18.0767 9.24585C17.7796 8.50922 17.3392 7.8389 16.7811 7.27378C16.223 6.70866 15.5582 6.25999 14.8253 5.95378C14.0924 5.64757 13.306 5.48993 12.5117 5.48999C12.3128 5.48999 12.122 5.56901 11.9814 5.70966C11.8407 5.85031 11.7617 6.04108 11.7617 6.23999C11.7617 6.4389 11.8407 6.62967 11.9814 6.77032C12.122 6.91097 12.3128 6.98999 12.5117 6.98999C13.1028 6.99444 13.6872 7.1153 14.2315 7.34565C14.7759 7.57599 15.2695 7.91133 15.6842 8.33249Z" fill="#248FEC"/>
</g>
<defs>
<clipPath id="clip0_1195_95818">
<rect width="24" height="24" fill="white"/>
</clipPath>
</defs>
</svg>
