<svg width="24" height="24" viewBox="0 0 24 24" fill="none" xmlns="http://www.w3.org/2000/svg">
<g clip-path="url(#clip0_1195_95806)">
<path d="M15 1H9V3H15V1ZM11 14H13V8H11V14ZM19.025 7.385L20.45 5.96C20.02 5.445 19.55 4.975 19.035 4.545L17.61 5.97C16.0176 4.69256 14.0365 3.99751 11.995 4C7.02 4 3 8.03 3 13C3 17.97 7.02 22 11.995 22C16.97 22 21 17.97 21 13C21 10.875 20.26 8.925 19.025 7.385ZM12 20C8.135 20 5 16.865 5 13C5 9.135 8.135 6 12 6C15.865 6 19 9.135 19 13C19 16.865 15.865 20 12 20Z" fill="#248FEC"/>
</g>
<defs>
<clipPath id="clip0_1195_95806">
<rect width="24" height="24" fill="white"/>
</clipPath>
</defs>
</svg>
